<svg id="Layer_1" data-name="Layer 1" xmlns="http://www.w3.org/2000/svg" viewBox="0 0 311.33 70.82"><defs><style>.cls-1{fill:#2b3990;}</style></defs><path class="cls-1" d="M836.05,1088a9,9,0,0,1-4.35,8,17.16,17.16,0,0,1-9.29,2.31H804.77v-38.25h17.66a15.5,15.5,0,0,1,8.78,2.21c2.54,1.71,3.81,4.33,3.81,7.84a7.92,7.92,0,0,1-1.88,5.28,9.59,9.59,0,0,1-5,2.94v.11a9.73,9.73,0,0,1,5.69,3.33,9.35,9.35,0,0,1,2.18,6.22m-10.16-17.11q0-4-5-4h-7.29v8.42h6.56c3.83,0,5.74-1.48,5.74-4.38m.82,15.56c0-2.92-2.05-4.4-6.11-4.4h-7v9.21h6.85c4.17,0,6.27-1.6,6.27-4.81" transform="translate(-804.77 -1059.53)"/><path class="cls-1" d="M851.53,1067.43h-8.12v-7.9h8.12Zm0,30.89h-8.12V1070h8.12Z" transform="translate(-804.77 -1059.53)"/><path class="cls-1" d="M883.65,1098.32h-8.1v-16.45q0-5.92-3.71-5.93c-2.9,0-4.35,2.39-4.35,7.13v15.25h-8.11V1070h7.69v4.8q2.43-5.38,8.08-5.38c3.34,0,5.67,1.06,7,3.16,1,1.68,1.57,4.27,1.57,7.78Z" transform="translate(-804.77 -1059.53)"/><path class="cls-1" d="M908.94,1098.26a25.09,25.09,0,0,1-5.07.61q-5.58,0-7.53-2.15c-1.32-1.44-2-4-2-7.78v-12.5h-4.6V1070h4.91l.73-8.34,7.07-.53V1070h6v6.49h-6v11.81a4.72,4.72,0,0,0,.89,3.28,3.11,3.11,0,0,0,2.36.77,25.24,25.24,0,0,1,3.2-.21Z" transform="translate(-804.77 -1059.53)"/><path class="cls-1" d="M940.4,1098.32h-8.07a20.57,20.57,0,0,1-.4-4.4,10.36,10.36,0,0,1-8.93,4.95,9.61,9.61,0,0,1-6.35-2.1,7.34,7.34,0,0,1-2.48-5.91c0-4,2.06-6.79,6.18-8.34q2.92-1.11,11.2-1.86V1080a7.41,7.41,0,0,0-.65-3.63c-.59-.95-1.72-1.44-3.37-1.44a5.21,5.21,0,0,0-3.37,1.06,3.66,3.66,0,0,0-1.5,3.1l-7.66-.78a8.7,8.7,0,0,1,4.81-7,17.48,17.48,0,0,1,8.55-1.88c4.16,0,7.16.89,9,2.65s2.73,4.7,2.73,8.79c0,1.22-.08,3-.26,5.43s-.25,4.23-.25,5.44a22.27,22.27,0,0,0,.83,6.57m-8.85-12.13v-1.39c-5.82.62-8.75,2.34-8.75,5.15,0,2.49,1.19,3.76,3.58,3.76,3.43,0,5.17-2.51,5.17-7.52" transform="translate(-804.77 -1059.53)"/><path class="cls-1" d="M961.35,1077.7q-7.29,0-7.29,11.9c0,1,.06,2.41.17,4.36s.15,3.42.15,4.36h-8.11V1070h7.58v5.28c1.06-3.9,2.78-5.86,5.21-5.86.82,0,1.56,0,2.29.11Z" transform="translate(-804.77 -1059.53)"/><path class="cls-1" d="M991.78,1084.35a15,15,0,0,1-3.66,10.28,12.62,12.62,0,0,1-9.88,4.24,12.14,12.14,0,0,1-9.86-4.36,15.66,15.66,0,0,1-3.44-10.44,15.34,15.34,0,0,1,3.44-10.31,12.14,12.14,0,0,1,9.86-4.32,12.4,12.4,0,0,1,10,4.36,15.48,15.48,0,0,1,3.54,10.55m-8.74-.44a18.67,18.67,0,0,0-.66-5.77c-.69-2.19-2.07-3.28-4.09-3.28-3.08,0-4.63,2.81-4.63,8.4q0,10.14,4.58,10.15c2.06,0,3.47-1.17,4.2-3.48a21.65,21.65,0,0,0,.6-6" transform="translate(-804.77 -1059.53)"/><path class="cls-1" d="M1026,1086.61q0,6.41-2.77,9.34c-1.84,2-4.86,2.92-9.1,2.92-.12,0-2.09-.19-6-.61v-7.38a31,31,0,0,0,4.3.41c1.89,0,3.17-.54,3.86-1.61a7.8,7.8,0,0,0,.83-4.18v-25.43H1026Z" transform="translate(-804.77 -1059.53)"/><path class="cls-1" d="M1057.46,1098.34h-8a20.26,20.26,0,0,1-.4-4.42,10.44,10.44,0,0,1-9,4.95,9.53,9.53,0,0,1-6.35-2.1,7.32,7.32,0,0,1-2.49-5.91c0-4,2.07-6.79,6.19-8.32q2.91-1.14,11.21-1.88V1080a7.41,7.41,0,0,0-.67-3.65c-.58-.95-1.71-1.44-3.37-1.44a5.18,5.18,0,0,0-3.36,1.06,3.65,3.65,0,0,0-1.49,3.1l-7.68-.78a8.74,8.74,0,0,1,4.81-7,17.63,17.63,0,0,1,8.58-1.88c4.14,0,7.14.89,9,2.65s2.73,4.7,2.73,8.79c0,1.22-.06,3-.26,5.45s-.24,4.22-.24,5.42a21.5,21.5,0,0,0,.83,6.59m-8.84-12.15v-1.39q-8.76.95-8.75,5.15c0,2.49,1.17,3.76,3.56,3.76q5.19,0,5.19-7.52" transform="translate(-804.77 -1059.53)"/><path class="cls-1" d="M1087.45,1070l-8.55,26.55a43.23,43.23,0,0,1-3.05,7.84,7.65,7.65,0,0,1-6.95,3.88c-.7,0-2.41-.12-5.13-.39v-6.42c2.6.28,4,.39,4.07.39a4.18,4.18,0,0,0,4.48-3.51L1062.11,1070h8.78l5.35,16.84,5.14-16.84Z" transform="translate(-804.77 -1059.53)"/><path class="cls-1" d="M1116.09,1098.34H1108a21.84,21.84,0,0,1-.37-4.42,10.46,10.46,0,0,1-9,4.95,9.55,9.55,0,0,1-6.35-2.1,7.32,7.32,0,0,1-2.49-5.91c0-4,2.06-6.79,6.2-8.32,1.93-.76,5.68-1.38,11.2-1.88V1080a7.32,7.32,0,0,0-.66-3.65c-.6-.95-1.71-1.44-3.37-1.44a5.12,5.12,0,0,0-3.36,1.06,3.63,3.63,0,0,0-1.5,3.1l-7.68-.78a8.78,8.78,0,0,1,4.82-7,17.53,17.53,0,0,1,8.57-1.88c4.15,0,7.13.89,9,2.65s2.73,4.7,2.73,8.79c0,1.22-.09,3-.25,5.45s-.26,4.22-.26,5.42a22.8,22.8,0,0,0,.83,6.59m-8.83-12.15v-1.39c-5.86.63-8.77,2.34-8.77,5.15,0,2.49,1.2,3.76,3.58,3.76q5.19,0,5.19-7.52" transform="translate(-804.77 -1059.53)"/><path class="cls-1" d="M806.87,1115.25h-1.4l.37-1.7h1.38l.5-2.52,2.47-.9-.8,3.42h3.29l-.35,1.7H809l-1.23,6a4.51,4.51,0,0,0-.15,1.1,1.5,1.5,0,0,0,1.72,1.7,4.12,4.12,0,0,0,1.78-.41l-.06,1.88a10.15,10.15,0,0,1-3,.33,2.58,2.58,0,0,1-2-.78,3.11,3.11,0,0,1-.71-2.18,3.37,3.37,0,0,1,.09-.77Z" transform="translate(-804.77 -1059.53)"/><path class="cls-1" d="M824.94,1125.57l1.33-7.53a5.49,5.49,0,0,0,.08-.84,1.81,1.81,0,0,0-2-2.06,3.61,3.61,0,0,0-1.63.43,5,5,0,0,0-1.38,1.07l-1.61,8.93H817.5l3-17h2.13l-1,6.25a4.45,4.45,0,0,1,1.59-1.11,5,5,0,0,1,2-.45,3.3,3.3,0,0,1,2.46.92,3.52,3.52,0,0,1,.89,2.57,11.6,11.6,0,0,1-.11,1.24l-1.36,7.53Z" transform="translate(-804.77 -1059.53)"/><path class="cls-1" d="M836.71,1119.9a5.39,5.39,0,0,0-.11,1,3,3,0,0,0,.85,2.28,3.27,3.27,0,0,0,2.3.79,4.5,4.5,0,0,0,2.68-1l-.21,2.18a9.82,9.82,0,0,1-3.19.61c-3.1,0-4.63-1.77-4.63-5.2a7.28,7.28,0,0,1,1.94-5.18,6.47,6.47,0,0,1,4.91-2.12,4.84,4.84,0,0,1,2.86.78,2.56,2.56,0,0,1,1.06,2.18,3.5,3.5,0,0,1-1.66,3.1,7,7,0,0,1-4.07,1.15,5.33,5.33,0,0,1-2.73-.62m.36-1.53a4.93,4.93,0,0,0,2,.39,6.33,6.33,0,0,0,2.85-.57,1.81,1.81,0,0,0,1.11-1.7c0-.9-.63-1.36-1.89-1.36-1.94,0-3.3,1.06-4.08,3.24" transform="translate(-804.77 -1059.53)"/><path class="cls-1" d="M862.87,1125l-1,5.36h-2.16l2.39-13.21a10.88,10.88,0,0,0,.17-1.7,9.69,9.69,0,0,0-.17-1.64l2.09-.41a8.74,8.74,0,0,1,.22,1.54,4.4,4.4,0,0,1,1.49-1.09,5,5,0,0,1,5.25.66,4.56,4.56,0,0,1,1.11,3.33,8.71,8.71,0,0,1-1.9,5.74,6.08,6.08,0,0,1-5,2.29,5.17,5.17,0,0,1-1.5-.24c-.57-.19-1-.39-1.08-.63m.31-1.78a1.28,1.28,0,0,0,.81.62,3.1,3.1,0,0,0,1.17.24,4.35,4.35,0,0,0,3.63-1.59,6.93,6.93,0,0,0,1.26-4.34,3,3,0,0,0-.74-2.22,3.1,3.1,0,0,0-2.24-.73,3.26,3.26,0,0,0-1.51.46,3.09,3.09,0,0,0-1.21.93Z" transform="translate(-804.77 -1059.53)"/><path class="cls-1" d="M885.86,1115.66a2.46,2.46,0,0,0-1.6-.52,3,3,0,0,0-2.15,1,4.67,4.67,0,0,0-1.28,2.5l-1.22,6.89h-2.14l2.13-12h2.13l-.34,1.94a4.55,4.55,0,0,1,3.84-2.17,9.7,9.7,0,0,1,1.22.16Z" transform="translate(-804.77 -1059.53)"/><path class="cls-1" d="M890.67,1121.16a8.53,8.53,0,0,1,1.86-5.54,6,6,0,0,1,4.81-2.3,4.44,4.44,0,0,1,3.33,1.19,4.64,4.64,0,0,1,1.15,3.36,10.27,10.27,0,0,1-.69,3.59,6.84,6.84,0,0,1-2.25,3.11,5.78,5.78,0,0,1-3.75,1.23,4.37,4.37,0,0,1-3.33-1.22,4.76,4.76,0,0,1-1.13-3.42m2.24-.14c0,2,.83,3,2.54,3a3.33,3.33,0,0,0,3-1.84,8.13,8.13,0,0,0,1.13-4.27c0-2-.86-2.91-2.56-2.91a3.19,3.19,0,0,0-2.25.94,4.94,4.94,0,0,0-1.41,2.36,9.13,9.13,0,0,0-.44,2.67" transform="translate(-804.77 -1059.53)"/><path class="cls-1" d="M916,1110.62a3.92,3.92,0,0,0-1.33-.31c-1.36,0-2.24,1.08-2.6,3.24h2.81l-.17,1.47h-2.85l-1.93,11.33a4.05,4.05,0,0,1-1.45,2.58,5.19,5.19,0,0,1-2.86,1.22l-.2-1.31a2.49,2.49,0,0,0,1.37-.91,2.76,2.76,0,0,0,.85-1.58l2-11.33h-1.71l.26-1.47h1.65c.65-3.29,2.31-4.94,4.95-4.94a3.57,3.57,0,0,1,1.63.34Z" transform="translate(-804.77 -1059.53)"/><path class="cls-1" d="M922.32,1119.9a6.24,6.24,0,0,0-.09,1,2.93,2.93,0,0,0,.84,2.28,3.22,3.22,0,0,0,2.3.79,4.45,4.45,0,0,0,2.67-1l-.21,2.18a9.73,9.73,0,0,1-3.19.61c-3.09,0-4.64-1.77-4.64-5.2a7.38,7.38,0,0,1,2-5.18,6.49,6.49,0,0,1,4.94-2.12,4.75,4.75,0,0,1,2.83.78,2.51,2.51,0,0,1,1.09,2.18,3.58,3.58,0,0,1-1.67,3.1,7.07,7.07,0,0,1-4.08,1.15,5.44,5.44,0,0,1-2.74-.62m.39-1.53a4.88,4.88,0,0,0,2,.39,6.38,6.38,0,0,0,2.84-.57,1.85,1.85,0,0,0,1.12-1.7c0-.9-.64-1.36-1.9-1.36-1.93,0-3.3,1.06-4.06,3.24" transform="translate(-804.77 -1059.53)"/><path class="cls-1" d="M935,1124.85l1.11-2a4.21,4.21,0,0,0,1.26.8,3.55,3.55,0,0,0,1.4.36,2.5,2.5,0,0,0,1.67-.54,1.85,1.85,0,0,0,.65-1.44,1.31,1.31,0,0,0-.34-.86,5.83,5.83,0,0,0-1.2-.84l-1.58-.89a2.71,2.71,0,0,1-1.1-1,2.9,2.9,0,0,1-.38-1.36,3.27,3.27,0,0,1,1.31-2.68,5.11,5.11,0,0,1,3.21-1,7.84,7.84,0,0,1,3.17.85l-1,2a3.38,3.38,0,0,0-2.37-1,2.49,2.49,0,0,0-1.44.42,1.33,1.33,0,0,0-.62,1.15,1.26,1.26,0,0,0,.36.89,7.35,7.35,0,0,0,1.18.83l1.6.84a2.65,2.65,0,0,1,1.43,2.36,3.7,3.7,0,0,1-1.39,3.06,5.56,5.56,0,0,1-3.54,1.13,6.22,6.22,0,0,1-3.43-1" transform="translate(-804.77 -1059.53)"/><path class="cls-1" d="M948.06,1124.85l1.11-2a3.86,3.86,0,0,0,1.26.8,3.4,3.4,0,0,0,1.38.36,2.35,2.35,0,0,0,1.65-.54,1.75,1.75,0,0,0,.68-1.44,1.2,1.2,0,0,0-.36-.86,4.41,4.41,0,0,0-1.17-.84l-1.58-.89a2.8,2.8,0,0,1-1.11-1,2.69,2.69,0,0,1-.38-1.36,3.21,3.21,0,0,1,1.31-2.68,5.07,5.07,0,0,1,3.22-1,7.92,7.92,0,0,1,3.16.85l-1,2a3.47,3.47,0,0,0-2.38-1,2.52,2.52,0,0,0-1.45.42,1.35,1.35,0,0,0-.61,1.15,1.24,1.24,0,0,0,.35.89,6.91,6.91,0,0,0,1.18.83l1.59.84a2.72,2.72,0,0,1,1.1,1,2.59,2.59,0,0,1,.36,1.34,3.73,3.73,0,0,1-1.42,3.06,5.49,5.49,0,0,1-3.55,1.13,6.15,6.15,0,0,1-3.39-1" transform="translate(-804.77 -1059.53)"/><path class="cls-1" d="M962.56,1125.57l1.82-10.23h-1.61l.38-1.76h3.68l-2.09,12Zm3.46-16.73a1.48,1.48,0,0,1,1,.43,1.51,1.51,0,0,1,.43,1.06,1.53,1.53,0,0,1-.43,1.06,1.47,1.47,0,0,1-1,.42,1.49,1.49,0,0,1-1.07-.42,1.45,1.45,0,0,1-.43-1.06,1.43,1.43,0,0,1,.43-1.06,1.5,1.5,0,0,1,1.07-.43" transform="translate(-804.77 -1059.53)"/><path class="cls-1" d="M972.62,1121.16a8.43,8.43,0,0,1,1.87-5.54,6.06,6.06,0,0,1,4.81-2.3,4.4,4.4,0,0,1,3.33,1.19,4.56,4.56,0,0,1,1.17,3.36,10.07,10.07,0,0,1-.7,3.59,7,7,0,0,1-2.23,3.11,5.94,5.94,0,0,1-3.78,1.23,4.32,4.32,0,0,1-3.32-1.22,4.81,4.81,0,0,1-1.15-3.42m2.23-.14c0,2,.88,3,2.55,3a3.39,3.39,0,0,0,3-1.84,8.31,8.31,0,0,0,1.11-4.27c0-2-.84-2.91-2.56-2.91a3.18,3.18,0,0,0-2.26.94,5.37,5.37,0,0,0-1.41,2.36,8.87,8.87,0,0,0-.46,2.67" transform="translate(-804.77 -1059.53)"/><path class="cls-1" d="M996.05,1125.57l1.23-7a7.45,7.45,0,0,0,.19-1.53c0-1.27-.67-1.89-2-1.89a3.54,3.54,0,0,0-1.62.43,4.68,4.68,0,0,0-1.41,1.09l-1.54,8.91h-2.14l1.61-9.12a7,7,0,0,0,0-.73,7.35,7.35,0,0,0-.24-2l2.07-.41c.19,1.11.29,1.7.28,1.83a4.7,4.7,0,0,1,4-1.83c2.16,0,3.27,1.13,3.27,3.33a8.63,8.63,0,0,1-.15,1.47l-1.3,7.46Z" transform="translate(-804.77 -1059.53)"/><path class="cls-1" d="M1016,1114.31l-1.49,7a4.92,4.92,0,0,0-.09,1,8.78,8.78,0,0,0,.57,3.23h-2.19a8.64,8.64,0,0,1-.39-1.21,4,4,0,0,1-1.58,1.06,6.51,6.51,0,0,1-2.22.38,3.6,3.6,0,0,1-2.77-1,4.13,4.13,0,0,1-1-3,9.4,9.4,0,0,1,1.95-5.86,6,6,0,0,1,5-2.55,6.83,6.83,0,0,1,4.16,1m-2.37,1.22c-.19-.32-.87-.49-2-.49a3.93,3.93,0,0,0-3.16,1.9,8,8,0,0,0-1.36,4.73c0,1.6.72,2.39,2.16,2.39a2.64,2.64,0,0,0,2.08-1.15,7.05,7.05,0,0,0,1.41-2.92Z" transform="translate(-804.77 -1059.53)"/><path class="cls-1" d="M1025.42,1124.23l-.25,1.57c-2.41,0-3.59-.88-3.59-2.67a25.48,25.48,0,0,1,.57-3.6l2.13-10.91h2.23l-2,10.24a26.7,26.7,0,0,0-.66,4c0,.91.5,1.37,1.6,1.37" transform="translate(-804.77 -1059.53)"/><path class="cls-1" d="M1035.06,1115.44l-.73-1c.74-.63,1.2-1,1.28-1.3a1.62,1.62,0,0,0,.18-.71,1.55,1.55,0,0,0-.56-1.05,1.48,1.48,0,0,1-.55-1.11,1.44,1.44,0,0,1,1.61-1.65c1.16,0,1.76.67,1.76,2a5.19,5.19,0,0,1-.82,2.71,6.9,6.9,0,0,1-2.17,2.13" transform="translate(-804.77 -1059.53)"/><path class="cls-1" d="M1041.73,1124.85l1.13-2a3.85,3.85,0,0,0,1.25.8,3.4,3.4,0,0,0,1.4.37,2.65,2.65,0,0,0,1.67-.53,1.9,1.9,0,0,0,.64-1.46,1.18,1.18,0,0,0-.37-.86,4.5,4.5,0,0,0-1.16-.84l-1.61-.88a3.09,3.09,0,0,1-1.1-1,3.27,3.27,0,0,1-.35-1.36,3.18,3.18,0,0,1,1.3-2.68,5.06,5.06,0,0,1,3.22-1,7.69,7.69,0,0,1,3.15.83l-.94,2a3.49,3.49,0,0,0-2.37-1,2.45,2.45,0,0,0-1.44.42,1.28,1.28,0,0,0-.63,1.15,1.34,1.34,0,0,0,.35.89,6.85,6.85,0,0,0,1.2.83l1.56.84a2.31,2.31,0,0,1,1.09,1,2.35,2.35,0,0,1,.38,1.34,3.75,3.75,0,0,1-1.39,3.06,5.63,5.63,0,0,1-3.58,1.13,6.24,6.24,0,0,1-3.4-1" transform="translate(-804.77 -1059.53)"/><path class="cls-1" d="M1075.75,1113.93l-.41,1.84a3.27,3.27,0,0,0-2.16-.64,4.07,4.07,0,0,0-3.35,1.62,6.36,6.36,0,0,0-1.27,4,3.35,3.35,0,0,0,.82,2.32,2.5,2.5,0,0,0,1.9.86,5.48,5.48,0,0,0,3.13-1l-.22,2.18a8.13,8.13,0,0,1-3.21.67,4.46,4.46,0,0,1-3.46-1.29,4.83,4.83,0,0,1-1.18-3.38,8.22,8.22,0,0,1,1.88-5.62,6.08,6.08,0,0,1,4.81-2.19,5.18,5.18,0,0,1,2.72.6" transform="translate(-804.77 -1059.53)"/><path class="cls-1" d="M1081.21,1125.57l1.8-10.23h-1.61l.4-1.76h3.67l-2.09,12Zm3.45-16.73a1.41,1.41,0,0,1,1,.44,1.46,1.46,0,0,1,.46,1,1.56,1.56,0,0,1-.46,1.07,1.48,1.48,0,0,1-1,.41,1.6,1.6,0,0,1-1.08-.41,1.53,1.53,0,0,1-.43-1.07,1.43,1.43,0,0,1,.43-1,1.54,1.54,0,0,1,1.08-.44" transform="translate(-804.77 -1059.53)"/><path class="cls-1" d="M1094,1115.25h-1.41l.38-1.7h1.39l.47-2.51,2.47-.91-.79,3.42h3.31l-.35,1.7h-3.35l-1.26,6a6.52,6.52,0,0,0-.14,1.1,1.53,1.53,0,0,0,1.73,1.71,4.11,4.11,0,0,0,1.78-.42l-.07,1.88a10,10,0,0,1-3,.33,2.62,2.62,0,0,1-2-.77,3.07,3.07,0,0,1-.72-2.19,3.46,3.46,0,0,1,.1-.77Z" transform="translate(-804.77 -1059.53)"/><path class="cls-1" d="M1104.16,1130.27v-2.14a5.13,5.13,0,0,0,2.95-.65,3.15,3.15,0,0,0,1.25-1.84c-1,0-1.73-1-2.1-3.13l-1.47-9h2.31l1.31,8.74q.19,1.29.93,1.29l4.33-10h2.42l-6,13.45a5.37,5.37,0,0,1-2,2.5,7.38,7.38,0,0,1-3.88.77" transform="translate(-804.77 -1059.53)"/></svg>